<svg xmlns="http://www.w3.org/2000/svg" viewBox="0 0 64 64"><defs><style>.cls-1{fill:#009245;}.cls-2{fill:#754c24;}.cls-3{fill:#ccc;}.cls-4{fill:#29abe2;}.cls-5{fill:#999;}</style></defs><g id="Layer_35" data-name="Layer 35"><path class="cls-1" d="M59,36.25c-2.77,0-3.61,9.94-3.61,10a3.61,3.61,0,0,0,7.22,0C62.61,46.19,61.77,36.25,59,36.25Z"/><path d="M62.61,46.29C61.46,33,56.54,33,55.39,46.29a3.6,3.6,0,0,0,2.86,3.52c.13.67-.46,3,.75,2.94s.62-2.27.75-2.94A3.6,3.6,0,0,0,62.61,46.29Zm-2.86,2c0-.62.26-2-.75-2s-.71,1.38-.75,2a2.11,2.11,0,0,1-1.36-2c0-1.85,1.19-7.65,2.11-8.49.92.84,2.11,6.64,2.11,8.49A2.11,2.11,0,0,1,59.75,48.25Z"/><rect class="cls-2" x="25" y="33" width="8" height="18"/><path class="cls-3" d="M28,7.49,19.9,16H24a1,1,0,0,1,1,1V31H48.45Z"/><path class="cls-3" d="M5,51h5V23a1,1,0,0,1,1-1h9a1,1,0,0,1,1,1V51h2V18H5Z"/><rect class="cls-4" x="12" y="24" width="7" height="18"/><rect class="cls-4" x="12" y="44" width="7" height="7"/><path class="cls-5" d="M48.45,31,29.34,8.92l.16-.17L28.05,7.38c-.09.14-1.37,1.21-1.52,1.35l.11.14L19.91,16l1.45,1.38,6.6-7,19,21.92Z"/><path class="cls-5" d="M5,18v2H21V51h2V18Z"/><path d="M63,51H51V33.93l3.25,3.73c.83,1,2.38-.35,1.5-1.32l-27-31a1,1,0,0,0-1.48,0L17.15,16H4a1,1,0,0,0-1,1V51H1a1,1,0,0,0,0,2H63A1,1,0,0,0,63,51ZM49,51H35V33H49ZM28,7.49,48.45,31H25V17a1,1,0,0,0-1-1H19.9ZM12,51V44h7v7Zm7-9H12V24h7Zm2,9V23a1,1,0,0,0-1-1H11a1,1,0,0,0-1,1V51H5V18H23V51Zm4,0V33h8V51Z"/></g></svg>